<svg xmlns="http://www.w3.org/2000/svg" width="488" height="312" viewBox="0 0 488 312" version="1.1"><path d="M 123.250 40.689 C 124.213 40.941, 125.787 40.941, 126.750 40.689 C 127.713 40.438, 126.925 40.232, 125 40.232 C 123.075 40.232, 122.287 40.438, 123.250 40.689 M 136.250 40.689 C 137.213 40.941, 138.787 40.941, 139.750 40.689 C 140.713 40.438, 139.925 40.232, 138 40.232 C 136.075 40.232, 135.287 40.438, 136.250 40.689 M 142.333 40.667 C 142.700 41.033, 143.300 41.033, 143.667 40.667 C 144.033 40.300, 143.733 40, 143 40 C 142.267 40, 141.967 40.300, 142.333 40.667 M 341.264 40.718 C 342.784 40.947, 345.034 40.941, 346.264 40.704 C 347.494 40.467, 346.250 40.279, 343.500 40.286 C 340.750 40.294, 339.744 40.488, 341.264 40.718 M 356.250 40.689 C 357.212 40.941, 358.788 40.941, 359.750 40.689 C 360.712 40.438, 359.925 40.232, 358 40.232 C 356.075 40.232, 355.288 40.438, 356.250 40.689 M 116.750 41.662 C 117.438 41.940, 118.563 41.940, 119.250 41.662 C 119.938 41.385, 119.375 41.158, 118 41.158 C 116.625 41.158, 116.063 41.385, 116.750 41.662 M 145.813 41.683 C 146.534 41.972, 147.397 41.936, 147.729 41.604 C 148.061 41.272, 147.471 41.036, 146.417 41.079 C 145.252 41.127, 145.015 41.364, 145.813 41.683 M 334.813 41.683 C 335.534 41.972, 336.397 41.936, 336.729 41.604 C 337.061 41.272, 336.471 41.036, 335.417 41.079 C 334.252 41.127, 334.015 41.364, 334.813 41.683 M 363.813 41.683 C 364.534 41.972, 365.397 41.936, 365.729 41.604 C 366.061 41.272, 365.471 41.036, 364.417 41.079 C 363.252 41.127, 363.015 41.364, 363.813 41.683 M 112.813 42.683 C 113.534 42.972, 114.397 42.936, 114.729 42.604 C 115.061 42.272, 114.471 42.036, 113.417 42.079 C 112.252 42.127, 112.015 42.364, 112.813 42.683 M 150.813 42.683 C 151.534 42.972, 152.397 42.936, 152.729 42.604 C 153.061 42.272, 152.471 42.036, 151.417 42.079 C 150.252 42.127, 150.015 42.364, 150.813 42.683 M 330.813 42.683 C 331.534 42.972, 332.397 42.936, 332.729 42.604 C 333.061 42.272, 332.471 42.036, 331.417 42.079 C 330.252 42.127, 330.015 42.364, 330.813 42.683 M 368.813 42.683 C 369.534 42.972, 370.397 42.936, 370.729 42.604 C 371.061 42.272, 370.471 42.036, 369.417 42.079 C 368.252 42.127, 368.015 42.364, 368.813 42.683 M 109.333 43.667 C 109.700 44.033, 110.300 44.033, 110.667 43.667 C 111.033 43.300, 110.733 43, 110 43 C 109.267 43, 108.967 43.300, 109.333 43.667 M 154.333 43.667 C 154.700 44.033, 155.300 44.033, 155.667 43.667 C 156.033 43.300, 155.733 43, 155 43 C 154.267 43, 153.967 43.300, 154.333 43.667 M 325 44 C 324.175 44.533, 323.950 44.969, 324.500 44.969 C 325.050 44.969, 326.175 44.533, 327 44 C 327.825 43.467, 328.050 43.031, 327.500 43.031 C 326.950 43.031, 325.825 43.467, 325 44 M 372.333 43.667 C 372.700 44.033, 373.300 44.033, 373.667 43.667 C 374.033 43.300, 373.733 43, 373 43 C 372.267 43, 371.967 43.300, 372.333 43.667 M 106.333 44.667 C 106.700 45.033, 107.300 45.033, 107.667 44.667 C 108.033 44.300, 107.733 44, 107 44 C 106.267 44, 105.967 44.300, 106.333 44.667 M 157.333 44.667 C 157.700 45.033, 158.300 45.033, 158.667 44.667 C 159.033 44.300, 158.733 44, 158 44 C 157.267 44, 156.967 44.300, 157.333 44.667 M 375.333 44.667 C 375.700 45.033, 376.300 45.033, 376.667 44.667 C 377.033 44.300, 376.733 44, 376 44 C 375.267 44, 374.967 44.300, 375.333 44.667 M 102 46 C 101.175 46.533, 100.950 46.969, 101.500 46.969 C 102.050 46.969, 103.175 46.533, 104 46 C 104.825 45.467, 105.050 45.031, 104.500 45.031 C 103.950 45.031, 102.825 45.467, 102 46 M 160 45.500 C 160 45.775, 160.225 46, 160.500 46 C 160.775 46, 161 45.775, 161 45.500 C 161 45.225, 160.775 45, 160.500 45 C 160.225 45, 160 45.225, 160 45.500 M 321.333 45.667 C 321.700 46.033, 322.300 46.033, 322.667 45.667 C 323.033 45.300, 322.733 45, 322 45 C 321.267 45, 320.967 45.300, 321.333 45.667 M 378 45.500 C 378 45.775, 378.225 46, 378.500 46 C 378.775 46, 379 45.775, 379 45.500 C 379 45.225, 378.775 45, 378.500 45 C 378.225 45, 378 45.225, 378 45.500 M 162.333 46.667 C 162.700 47.033, 163.300 47.033, 163.667 46.667 C 164.033 46.300, 163.733 46, 163 46 C 162.267 46, 161.967 46.300, 162.333 46.667 M 319 46.500 C 319 46.775, 319.225 47, 319.500 47 C 319.775 47, 320 46.775, 320 46.500 C 320 46.225, 319.775 46, 319.500 46 C 319.225 46, 319 46.225, 319 46.500 M 381 47 C 381.825 47.533, 382.950 47.969, 383.500 47.969 C 384.050 47.969, 383.825 47.533, 383 47 C 382.175 46.467, 381.050 46.031, 380.500 46.031 C 379.950 46.031, 380.175 46.467, 381 47 M 96.441 48.555 C 94.611 50.022, 94.643 50.042, 97 48.920 C 100.061 47.462, 100.628 47, 99.358 47 C 98.821 47, 97.509 47.700, 96.441 48.555 M 165 47.454 C 165 47.732, 166.782 48.868, 168.960 49.980 C 172.834 51.956, 174.420 51.995, 241.710 51.763 L 310.500 51.527 241 51.013 C 176.892 50.540, 171.248 50.362, 168.250 48.724 C 166.463 47.748, 165 47.176, 165 47.454 M 317 47.500 C 317 47.775, 317.225 48, 317.500 48 C 317.775 48, 318 47.775, 318 47.500 C 318 47.225, 317.775 47, 317.500 47 C 317.225 47, 317 47.225, 317 47.500 M 315 48.500 C 315 48.775, 315.225 49, 315.500 49 C 315.775 49, 316 48.775, 316 48.500 C 316 48.225, 315.775 48, 315.500 48 C 315.225 48, 315 48.225, 315 48.500 M 385 48.500 C 385 48.775, 385.225 49, 385.500 49 C 385.775 49, 386 48.775, 386 48.500 C 386 48.225, 385.775 48, 385.500 48 C 385.225 48, 385 48.225, 385 48.500 M 313 49.500 C 313 49.775, 313.225 50, 313.500 50 C 313.775 50, 314 49.775, 314 49.500 C 314 49.225, 313.775 49, 313.500 49 C 313.225 49, 313 49.225, 313 49.500 M 387 49.430 C 387 49.705, 387.900 50.411, 389 51 C 390.100 51.589, 391 51.845, 391 51.570 C 391 51.295, 390.100 50.589, 389 50 C 387.900 49.411, 387 49.155, 387 49.430 M 91.441 51.555 C 89.577 53.049, 89.589 53.067, 91.750 52.020 C 92.987 51.420, 94 50.720, 94 50.465 C 94 49.700, 93.481 49.921, 91.441 51.555 M 311 50.500 C 311 50.775, 311.225 51, 311.500 51 C 311.775 51, 312 50.775, 312 50.500 C 312 50.225, 311.775 50, 311.500 50 C 311.225 50, 311 50.225, 311 50.500 M 392.500 53 C 392.840 53.550, 393.343 54, 393.618 54 C 393.893 54, 393.840 53.550, 393.500 53 C 393.160 52.450, 392.657 52, 392.382 52 C 392.107 52, 392.160 52.450, 392.500 53 M 84.417 56.572 L 80.500 60.145 84.750 56.905 C 88.633 53.945, 89.581 53, 88.667 53 C 88.483 53, 86.571 54.608, 84.417 56.572 M 395 54.378 C 395 54.585, 395.788 55.373, 396.750 56.128 C 398.336 57.371, 398.371 57.336, 397.128 55.750 C 395.821 54.084, 395 53.555, 395 54.378 M 404 62.500 C 406.987 65.525, 409.657 68, 409.932 68 C 410.207 68, 407.987 65.525, 405 62.500 C 402.013 59.475, 399.343 57, 399.068 57 C 398.793 57, 401.013 59.475, 404 62.500 M 72.405 68.250 L 70.500 70.500 72.750 68.595 C 73.987 67.547, 75 66.535, 75 66.345 C 75 65.545, 74.195 66.136, 72.405 68.250 M 412.437 72.329 C 413.977 74.348, 415.440 76, 415.687 76 C 416.381 76, 412.052 70.150, 410.772 69.359 C 410.148 68.973, 410.897 70.310, 412.437 72.329 M 68.232 73.750 C 65.643 77.489, 64.802 79, 65.308 79 C 65.542 79, 66.925 77.200, 68.381 75 C 71.340 70.529, 71.211 69.448, 68.232 73.750 M 128.776 71.733 C 131.128 71.945, 134.728 71.942, 136.776 71.727 C 138.824 71.512, 136.900 71.339, 132.500 71.343 C 128.100 71.346, 126.424 71.522, 128.776 71.733 M 346.250 71.728 C 348.313 71.944, 351.688 71.944, 353.750 71.728 C 355.813 71.513, 354.125 71.336, 350 71.336 C 345.875 71.336, 344.188 71.513, 346.250 71.728 M 120.813 72.683 C 121.534 72.972, 122.397 72.936, 122.729 72.604 C 123.061 72.272, 122.471 72.036, 121.417 72.079 C 120.252 72.127, 120.015 72.364, 120.813 72.683 M 142.813 72.683 C 143.534 72.972, 144.397 72.936, 144.729 72.604 C 145.061 72.272, 144.471 72.036, 143.417 72.079 C 142.252 72.127, 142.015 72.364, 142.813 72.683 M 338.813 72.683 C 339.534 72.972, 340.397 72.936, 340.729 72.604 C 341.061 72.272, 340.471 72.036, 339.417 72.079 C 338.252 72.127, 338.015 72.364, 338.813 72.683 M 359.813 72.683 C 360.534 72.972, 361.397 72.936, 361.729 72.604 C 362.061 72.272, 361.471 72.036, 360.417 72.079 C 359.252 72.127, 359.015 72.364, 359.813 72.683 M 117.333 73.667 C 117.700 74.033, 118.300 74.033, 118.667 73.667 C 119.033 73.300, 118.733 73, 118 73 C 117.267 73, 116.967 73.300, 117.333 73.667 M 146.333 73.667 C 146.700 74.033, 147.300 74.033, 147.667 73.667 C 148.033 73.300, 147.733 73, 147 73 C 146.267 73, 145.967 73.300, 146.333 73.667 M 333 74 C 332.175 74.533, 331.950 74.969, 332.500 74.969 C 333.050 74.969, 334.175 74.533, 335 74 C 335.825 73.467, 336.050 73.031, 335.500 73.031 C 334.950 73.031, 333.825 73.467, 333 74 M 364.333 73.667 C 364.700 74.033, 365.300 74.033, 365.667 73.667 C 366.033 73.300, 365.733 73, 365 73 C 364.267 73, 363.967 73.300, 364.333 73.667 M 114.333 74.667 C 114.700 75.033, 115.300 75.033, 115.667 74.667 C 116.033 74.300, 115.733 74, 115 74 C 114.267 74, 113.967 74.300, 114.333 74.667 M 149.333 74.667 C 149.700 75.033, 150.300 75.033, 150.667 74.667 C 151.033 74.300, 150.733 74, 150 74 C 149.267 74, 148.967 74.300, 149.333 74.667 M 367.083 74.373 C 368.112 75.294, 374 77.999, 374 77.551 C 374 76.975, 368.456 74, 367.383 74 C 366.989 74, 366.854 74.168, 367.083 74.373 M 112 75.500 C 112 75.775, 112.225 76, 112.500 76 C 112.775 76, 113 75.775, 113 75.500 C 113 75.225, 112.775 75, 112.500 75 C 112.225 75, 112 75.225, 112 75.500 M 152 75.500 C 152 75.775, 152.225 76, 152.500 76 C 152.775 76, 153 75.775, 153 75.500 C 153 75.225, 152.775 75, 152.500 75 C 152.225 75, 152 75.225, 152 75.500 M 330 75.500 C 330 75.775, 330.225 76, 330.500 76 C 330.775 76, 331 75.775, 331 75.500 C 331 75.225, 330.775 75, 330.500 75 C 330.225 75, 330 75.225, 330 75.500 M 106.482 78.640 C 101.379 82.023, 99.581 83.808, 103.566 81.535 C 107.074 79.534, 111.754 76.055, 110.982 76.022 C 110.697 76.010, 108.672 77.188, 106.482 78.640 M 154 76.252 C 154 76.887, 161.741 82, 162.701 82 C 163.110 82, 162.557 81.394, 161.473 80.653 C 156.702 77.396, 154 75.805, 154 76.252 M 328 76.500 C 328 76.775, 328.225 77, 328.500 77 C 328.775 77, 329 76.775, 329 76.500 C 329 76.225, 328.775 76, 328.500 76 C 328.225 76, 328 76.225, 328 76.500 M 323.861 79.059 L 321.500 81.119 324.250 79.444 C 325.762 78.523, 327 77.597, 327 77.385 C 327 76.604, 326.165 77.050, 323.861 79.059 M 416 77.500 C 416 77.775, 416.225 78, 416.500 78 C 416.775 78, 417 77.775, 417 77.500 C 417 77.225, 416.775 77, 416.500 77 C 416.225 77, 416 77.225, 416 77.500 M 375.500 79 C 375.840 79.550, 376.343 80, 376.618 80 C 376.893 80, 376.840 79.550, 376.500 79 C 376.160 78.450, 375.657 78, 375.382 78 C 375.107 78, 375.160 78.450, 375.500 79 M 419.202 83.478 C 420.398 85.941, 421.549 87.785, 421.758 87.575 C 422.211 87.123, 418.170 79, 417.493 79 C 417.236 79, 418.005 81.015, 419.202 83.478 M 62.954 82.086 C 62.340 83.233, 62.026 84.360, 62.257 84.590 C 62.487 84.820, 63.189 83.882, 63.816 82.504 C 65.194 79.480, 64.523 79.154, 62.954 82.086 M 382.500 85 C 385.209 87.750, 387.650 90, 387.925 90 C 388.200 90, 386.209 87.750, 383.500 85 C 380.791 82.250, 378.350 80, 378.075 80 C 377.800 80, 379.791 82.250, 382.500 85 M 316.946 84.750 L 313.500 88.500 317.250 85.054 C 319.313 83.158, 321 81.471, 321 81.304 C 321 80.540, 320.154 81.260, 316.946 84.750 M 61 86.500 C 61 86.775, 61.225 87, 61.500 87 C 61.775 87, 62 86.775, 62 86.500 C 62 86.225, 61.775 86, 61.500 86 C 61.225 86, 61 86.225, 61 86.500 M 95.299 89.250 C 94.172 90.487, 92.735 92.625, 92.105 94 C 91.133 96.120, 91.152 96.214, 92.230 94.616 C 92.928 93.580, 94.553 91.442, 95.839 89.866 C 98.612 86.468, 98.230 86.032, 95.299 89.250 M 169.035 89.616 C 170.391 91.330, 172.069 93.580, 172.764 94.616 C 173.510 95.728, 173.450 95.270, 172.617 93.498 C 171.840 91.846, 170.162 89.596, 168.888 88.498 C 166.650 86.568, 166.655 86.606, 169.035 89.616 M 329.333 87.667 C 329.700 88.033, 330.300 88.033, 330.667 87.667 C 331.033 87.300, 330.733 87, 330 87 C 329.267 87, 328.967 87.300, 329.333 87.667 M 338.333 87.667 C 338.700 88.033, 339.300 88.033, 339.667 87.667 C 340.033 87.300, 339.733 87, 339 87 C 338.267 87, 337.967 87.300, 338.333 87.667 M 59.116 91.098 C 58.502 92.858, 58.032 94.794, 58.070 95.399 C 58.109 96.005, 58.786 94.739, 59.574 92.587 C 60.363 90.435, 60.833 88.500, 60.620 88.286 C 60.406 88.073, 59.729 89.338, 59.116 91.098 M 327 88.500 C 327 88.775, 327.225 89, 327.500 89 C 327.775 89, 328 88.775, 328 88.500 C 328 88.225, 327.775 88, 327.500 88 C 327.225 88, 327 88.225, 327 88.500 M 341 88.500 C 341 88.775, 341.225 89, 341.500 89 C 341.775 89, 342 88.775, 342 88.500 C 342 88.225, 341.775 88, 341.500 88 C 341.225 88, 341 88.225, 341 88.500 M 311.872 90.750 C 310.629 92.336, 310.664 92.371, 312.250 91.128 C 313.916 89.821, 314.445 89, 313.622 89 C 313.415 89, 312.627 89.787, 311.872 90.750 M 323.405 91.250 L 321.500 93.500 323.750 91.595 C 324.988 90.547, 326 89.535, 326 89.345 C 326 88.545, 325.195 89.136, 323.405 91.250 M 345 91.500 C 346.292 92.875, 347.574 94, 347.849 94 C 348.124 94, 347.292 92.875, 346 91.500 C 344.708 90.125, 343.426 89, 343.151 89 C 342.876 89, 343.708 90.125, 345 91.500 M 422 90 C 422 90.733, 422.300 91.033, 422.667 90.667 C 423.033 90.300, 423.033 89.700, 422.667 89.333 C 422.300 88.967, 422 89.267, 422 90 M 388.500 92 C 388.840 92.550, 389.343 93, 389.618 93 C 389.893 93, 389.840 92.550, 389.500 92 C 389.160 91.450, 388.657 91, 388.382 91 C 388.107 91, 388.160 91.450, 388.500 92 M 423 92.500 C 423 92.775, 423.225 93, 423.500 93 C 423.775 93, 424 92.775, 424 92.500 C 424 92.225, 423.775 92, 423.500 92 C 423.225 92, 423 92.225, 423 92.500 M 308.452 96.093 C 307.572 97.794, 307.030 99.363, 307.247 99.580 C 307.464 99.797, 308.390 98.406, 309.305 96.487 C 311.361 92.175, 310.649 91.845, 308.452 96.093 M 320.459 95.067 C 320.096 95.653, 320.014 96.348, 320.276 96.610 C 320.538 96.872, 321.019 96.392, 321.345 95.543 C 322.021 93.781, 321.445 93.471, 320.459 95.067 M 391.695 97.487 C 392.610 99.406, 393.536 100.797, 393.753 100.580 C 394.210 100.123, 391.175 94, 390.490 94 C 390.239 94, 390.781 95.569, 391.695 97.487 M 424 95 C 424 95.733, 424.300 96.033, 424.667 95.667 C 425.033 95.300, 425.033 94.700, 424.667 94.333 C 424.300 93.967, 424 94.267, 424 95 M 348 95.500 C 348 95.775, 348.225 96, 348.500 96 C 348.775 96, 349 95.775, 349 95.500 C 349 95.225, 348.775 95, 348.500 95 C 348.225 95, 348 95.225, 348 95.500 M 57 98 C 57 98.733, 57.300 99.033, 57.667 98.667 C 58.033 98.300, 58.033 97.700, 57.667 97.333 C 57.300 96.967, 57 97.267, 57 98 M 90 97.500 C 90 97.775, 90.225 98, 90.500 98 C 90.775 98, 91 97.775, 91 97.500 C 91 97.225, 90.775 97, 90.500 97 C 90.225 97, 90 97.225, 90 97.500 M 174 97.500 C 174 97.775, 174.225 98, 174.500 98 C 174.775 98, 175 97.775, 175 97.500 C 175 97.225, 174.775 97, 174.500 97 C 174.225 97, 174 97.225, 174 97.500 M 349 98 C 349 98.733, 349.300 99.033, 349.667 98.667 C 350.033 98.300, 350.033 97.700, 349.667 97.333 C 349.300 96.967, 349 97.267, 349 98 M 319.079 99.583 C 319.127 100.748, 319.364 100.985, 319.683 100.188 C 319.972 99.466, 319.936 98.603, 319.604 98.271 C 319.272 97.939, 319.036 98.529, 319.079 99.583 M 425 99 C 425 99.733, 425.300 100.033, 425.667 99.667 C 426.033 99.300, 426.033 98.700, 425.667 98.333 C 425.300 97.967, 425 98.267, 425 99 M 88.624 100.539 C 87.659 103.053, 87.943 103.702, 89.122 101.675 C 89.706 100.671, 89.973 99.639, 89.715 99.382 C 89.458 99.124, 88.966 99.645, 88.624 100.539 M 175.157 99.500 C 175.154 100.050, 175.759 102.075, 176.500 104 C 177.241 105.925, 177.862 106.825, 177.879 106 C 177.896 105.175, 177.292 103.150, 176.536 101.500 C 175.781 99.850, 175.160 98.950, 175.157 99.500 M 56.079 102.583 C 56.127 103.748, 56.364 103.985, 56.683 103.188 C 56.972 102.466, 56.936 101.603, 56.604 101.271 C 56.272 100.939, 56.036 101.529, 56.079 102.583 M 306 101.500 C 306 101.775, 306.225 102, 306.500 102 C 306.775 102, 307 101.775, 307 101.500 C 307 101.225, 306.775 101, 306.500 101 C 306.225 101, 306 101.225, 306 101.500 M 394 103 C 394 103.733, 394.300 104.033, 394.667 103.667 C 395.033 103.300, 395.033 102.700, 394.667 102.333 C 394.300 101.967, 394 102.267, 394 103 M 426.158 104 C 426.158 105.375, 426.385 105.938, 426.662 105.250 C 426.940 104.563, 426.940 103.438, 426.662 102.750 C 426.385 102.063, 426.158 102.625, 426.158 104 M 305 104 C 305 104.733, 305.300 105.033, 305.667 104.667 C 306.033 104.300, 306.033 103.700, 305.667 103.333 C 305.300 102.967, 305 103.267, 305 104 M 87.079 105.583 C 87.127 106.748, 87.364 106.985, 87.683 106.188 C 87.972 105.466, 87.936 104.603, 87.604 104.271 C 87.272 103.939, 87.036 104.529, 87.079 105.583 M 319.079 105.583 C 319.127 106.748, 319.364 106.985, 319.683 106.188 C 319.972 105.466, 319.936 104.603, 319.604 104.271 C 319.272 103.939, 319.036 104.529, 319.079 105.583 M 349.079 106.583 C 349.127 107.748, 349.364 107.985, 349.683 107.188 C 349.972 106.466, 349.936 105.603, 349.604 105.271 C 349.272 104.939, 349.036 105.529, 349.079 106.583 M 55.232 109 C 55.232 110.925, 55.438 111.713, 55.689 110.750 C 55.941 109.787, 55.941 108.213, 55.689 107.250 C 55.438 106.287, 55.232 107.075, 55.232 109 M 97 118 L 97 130 109.250 129.785 L 121.500 129.570 109.750 129.253 L 98 128.937 98 118 L 98 107.063 109.750 106.747 L 121.500 106.430 109.250 106.215 L 97 106 97 118 M 155.250 106.747 L 167 107.063 167 118 L 167 128.937 155.250 129.253 L 143.500 129.570 155.750 129.785 L 168 130 168 118 L 168 106 155.750 106.215 L 143.500 106.430 155.250 106.747 M 395.079 107.583 C 395.127 108.748, 395.364 108.985, 395.683 108.188 C 395.972 107.466, 395.936 106.603, 395.604 106.271 C 395.272 105.939, 395.036 106.529, 395.079 107.583 M 304.079 108.583 C 304.127 109.748, 304.364 109.985, 304.683 109.188 C 304.972 108.466, 304.936 107.603, 304.604 107.271 C 304.272 106.939, 304.036 107.529, 304.079 108.583 M 86.158 110 C 86.158 111.375, 86.385 111.938, 86.662 111.250 C 86.940 110.563, 86.940 109.438, 86.662 108.750 C 86.385 108.063, 86.158 108.625, 86.158 110 M 178.158 110 C 178.158 111.375, 178.385 111.938, 178.662 111.250 C 178.940 110.563, 178.940 109.438, 178.662 108.750 C 178.385 108.063, 178.158 108.625, 178.158 110 M 320 108.941 C 320 109.459, 320.445 110.157, 320.989 110.493 C 321.555 110.843, 321.723 110.442, 321.382 109.552 C 320.717 107.820, 320 107.503, 320 108.941 M 427.272 112 C 427.272 114.475, 427.467 115.487, 427.706 114.250 C 427.944 113.013, 427.944 110.987, 427.706 109.750 C 427.467 108.513, 427.272 109.525, 427.272 112 M 345.997 112.250 C 344.525 114.261, 344.283 114.960, 345.363 114.082 C 347.003 112.751, 349.483 109, 348.723 109 C 348.532 109, 347.305 110.463, 345.997 112.250 M 396.336 118 C 396.336 122.125, 396.513 123.813, 396.728 121.750 C 396.944 119.688, 396.944 116.313, 396.728 114.250 C 396.513 112.188, 396.336 113.875, 396.336 118 M 322 112.378 C 322 112.585, 322.788 113.373, 323.750 114.128 C 325.336 115.371, 325.371 115.336, 324.128 113.750 C 322.821 112.084, 322 111.555, 322 112.378 M 303.300 118 C 303.300 121.025, 303.487 122.263, 303.716 120.750 C 303.945 119.237, 303.945 116.763, 303.716 115.250 C 303.487 113.737, 303.300 114.975, 303.300 118 M 326.733 116.124 C 327.412 116.808, 328.219 117.115, 328.526 116.807 C 328.834 116.499, 328.279 115.940, 327.293 115.564 C 325.868 115.022, 325.753 115.136, 326.733 116.124 M 341 116 C 340.099 116.582, 339.975 116.975, 340.691 116.985 C 341.346 116.993, 342.160 116.550, 342.500 116 C 343.267 114.758, 342.921 114.758, 341 116 M 179.158 118 C 179.158 119.375, 179.385 119.938, 179.662 119.250 C 179.940 118.563, 179.940 117.438, 179.662 116.750 C 179.385 116.063, 179.158 116.625, 179.158 118 M 54.300 122 C 54.300 125.025, 54.487 126.263, 54.716 124.750 C 54.945 123.237, 54.945 120.763, 54.716 119.250 C 54.487 117.737, 54.300 118.975, 54.300 122 M 330.813 117.683 C 331.534 117.972, 332.397 117.936, 332.729 117.604 C 333.061 117.272, 332.471 117.036, 331.417 117.079 C 330.252 117.127, 330.015 117.364, 330.813 117.683 M 336.813 117.683 C 337.534 117.972, 338.397 117.936, 338.729 117.604 C 339.061 117.272, 338.471 117.036, 337.417 117.079 C 336.252 117.127, 336.015 117.364, 336.813 117.683 M 361.813 118.683 C 362.534 118.972, 363.397 118.936, 363.729 118.604 C 364.061 118.272, 363.471 118.036, 362.417 118.079 C 361.252 118.127, 361.015 118.364, 361.813 118.683 M 368.813 118.683 C 369.534 118.972, 370.397 118.936, 370.729 118.604 C 371.061 118.272, 370.471 118.036, 369.417 118.079 C 368.252 118.127, 368.015 118.364, 368.813 118.683 M 357.507 119.989 C 357.157 120.555, 357.558 120.723, 358.448 120.382 C 360.180 119.717, 360.497 119, 359.059 119 C 358.541 119, 357.843 119.445, 357.507 119.989 M 372 119.500 C 372 119.775, 372.225 120, 372.500 120 C 372.775 120, 373 119.775, 373 119.500 C 373 119.225, 372.775 119, 372.500 119 C 372.225 119, 372 119.225, 372 119.500 M 376 122.500 C 377.292 123.875, 378.574 125, 378.849 125 C 379.124 125, 378.292 123.875, 377 122.500 C 375.708 121.125, 374.426 120, 374.151 120 C 373.876 120, 374.708 121.125, 376 122.500 M 353.872 122.750 C 352.629 124.336, 352.664 124.371, 354.250 123.128 C 355.916 121.821, 356.445 121, 355.622 121 C 355.415 121, 354.627 121.787, 353.872 122.750 M 428.286 126.500 C 428.294 129.250, 428.488 130.256, 428.718 128.736 C 428.947 127.216, 428.941 124.966, 428.704 123.736 C 428.467 122.506, 428.279 123.750, 428.286 126.500 M 86.158 126 C 86.158 127.375, 86.385 127.938, 86.662 127.250 C 86.940 126.563, 86.940 125.438, 86.662 124.750 C 86.385 124.063, 86.158 124.625, 86.158 126 M 178.158 126 C 178.158 127.375, 178.385 127.938, 178.662 127.250 C 178.940 126.563, 178.940 125.438, 178.662 124.750 C 178.385 124.063, 178.158 124.625, 178.158 126 M 352 125.500 C 352 125.775, 352.225 126, 352.500 126 C 352.775 126, 353 125.775, 353 125.500 C 353 125.225, 352.775 125, 352.500 125 C 352.225 125, 352 125.225, 352 125.500 M 304.079 127.583 C 304.127 128.748, 304.364 128.985, 304.683 128.188 C 304.972 127.466, 304.936 126.603, 304.604 126.271 C 304.272 125.939, 304.036 126.529, 304.079 127.583 M 379 126.500 C 379 126.775, 379.225 127, 379.500 127 C 379.775 127, 380 126.775, 380 126.500 C 380 126.225, 379.775 126, 379.500 126 C 379.225 126, 379 126.225, 379 126.500 M 351 127.500 C 351 127.775, 351.225 128, 351.500 128 C 351.775 128, 352 127.775, 352 127.500 C 352 127.225, 351.775 127, 351.500 127 C 351.225 127, 351 127.225, 351 127.500 M 395.079 128.583 C 395.127 129.748, 395.364 129.985, 395.683 129.188 C 395.972 128.466, 395.936 127.603, 395.604 127.271 C 395.272 126.939, 395.036 127.529, 395.079 128.583 M 380 129 C 380 129.733, 380.300 130.033, 380.667 129.667 C 381.033 129.300, 381.033 128.700, 380.667 128.333 C 380.300 127.967, 380 128.267, 380 129 M 87.079 130.583 C 87.127 131.748, 87.364 131.985, 87.683 131.188 C 87.972 130.466, 87.936 129.603, 87.604 129.271 C 87.272 128.939, 87.036 129.529, 87.079 130.583 M 176.200 132.700 C 175.576 134.734, 175.230 136.564, 175.433 136.766 C 175.635 136.968, 176.340 135.499, 177 133.500 C 177.660 131.501, 178.005 129.672, 177.767 129.434 C 177.530 129.196, 176.824 130.666, 176.200 132.700 M 350.286 133.500 C 350.294 136.250, 350.488 137.256, 350.718 135.736 C 350.947 134.216, 350.941 131.966, 350.704 130.736 C 350.467 129.506, 350.279 130.750, 350.286 133.500 M 305 132 C 305 132.733, 305.300 133.033, 305.667 132.667 C 306.033 132.300, 306.033 131.700, 305.667 131.333 C 305.300 130.967, 305 131.267, 305 132 M 53.286 136.500 C 53.294 139.250, 53.488 140.256, 53.718 138.736 C 53.947 137.216, 53.941 134.966, 53.704 133.736 C 53.467 132.506, 53.279 133.750, 53.286 136.500 M 394 133 C 394 133.733, 394.300 134.033, 394.667 133.667 C 395.033 133.300, 395.033 132.700, 394.667 132.333 C 394.300 131.967, 394 132.267, 394 133 M 88.031 133.500 C 88.031 134.050, 88.467 135.175, 89 136 C 89.533 136.825, 89.969 137.050, 89.969 136.500 C 89.969 135.950, 89.533 134.825, 89 134 C 88.467 133.175, 88.031 132.950, 88.031 133.500 M 381 133.500 C 381 133.775, 381.225 134, 381.500 134 C 381.775 134, 382 133.775, 382 133.500 C 382 133.225, 381.775 133, 381.500 133 C 381.225 133, 381 133.225, 381 133.500 M 306 134.500 C 306 134.775, 306.225 135, 306.500 135 C 306.775 135, 307 134.775, 307 134.500 C 307 134.225, 306.775 134, 306.500 134 C 306.225 134, 306 134.225, 306 134.500 M 390.991 139.724 C 389.644 142.263, 386.308 146.851, 383.577 149.920 L 378.614 155.500 383.097 151.248 C 387.364 147.201, 394.747 136.414, 393.859 135.526 C 393.628 135.295, 392.338 137.184, 390.991 139.724 M 307 136.642 C 307 137.179, 307.700 138.491, 308.555 139.559 C 310.022 141.389, 310.042 141.357, 308.920 139 C 307.462 135.939, 307 135.372, 307 136.642 M 380 138 C 380 138.733, 380.300 139.033, 380.667 138.667 C 381.033 138.300, 381.033 137.700, 380.667 137.333 C 380.300 136.967, 380 137.267, 380 138 M 429.300 142 C 429.300 145.025, 429.487 146.262, 429.716 144.750 C 429.945 143.238, 429.945 140.762, 429.716 139.250 C 429.487 137.738, 429.300 138.975, 429.300 142 M 90 138.500 C 90 138.775, 90.225 139, 90.500 139 C 90.775 139, 91 138.775, 91 138.500 C 91 138.225, 90.775 138, 90.500 138 C 90.225 138, 90 138.225, 90 138.500 M 174 138.500 C 174 138.775, 174.225 139, 174.500 139 C 174.775 139, 175 138.775, 175 138.500 C 175 138.225, 174.775 138, 174.500 138 C 174.225 138, 174 138.225, 174 138.500 M 351 139.941 C 351 140.459, 351.445 141.157, 351.989 141.493 C 352.555 141.843, 352.723 141.442, 352.382 140.552 C 351.717 138.820, 351 138.503, 351 139.941 M 92 142 C 92.589 143.100, 93.295 144, 93.570 144 C 93.845 144, 93.589 143.100, 93 142 C 92.411 140.900, 91.705 140, 91.430 140 C 91.155 140, 91.411 140.900, 92 142 M 170.057 144.750 C 168.227 147.363, 167.578 148.743, 168.615 147.817 C 170.427 146.200, 174.499 140, 173.749 140 C 173.549 140, 171.888 142.137, 170.057 144.750 M 379 140.500 C 379 140.775, 379.225 141, 379.500 141 C 379.775 141, 380 140.775, 380 140.500 C 380 140.225, 379.775 140, 379.500 140 C 379.225 140, 379 140.225, 379 140.500 M 310.970 143.944 C 311.543 145.014, 312.505 146.194, 313.109 146.567 C 313.713 146.941, 313.434 146.066, 312.489 144.623 C 310.487 141.568, 309.451 141.105, 310.970 143.944 M 375.924 144.750 L 373.500 147.500 376.250 145.076 C 377.762 143.742, 379 142.505, 379 142.326 C 379 141.541, 378.190 142.180, 375.924 144.750 M 353 143.378 C 353 143.585, 353.788 144.373, 354.750 145.128 C 356.336 146.371, 356.371 146.336, 355.128 144.750 C 353.821 143.084, 353 142.555, 353 143.378 M 95.500 147 C 96.495 148.100, 97.535 149, 97.810 149 C 98.085 149, 97.495 148.100, 96.500 147 C 95.505 145.900, 94.465 145, 94.190 145 C 93.915 145, 94.505 145.900, 95.500 147 M 358.441 147.445 C 359.509 148.300, 361.084 148.964, 361.941 148.921 C 363.288 148.853, 363.296 148.766, 362 148.286 C 361.175 147.980, 359.600 147.316, 358.500 146.810 C 356.532 145.904, 356.531 145.915, 358.441 147.445 M 52.286 151.500 C 52.294 154.250, 52.488 155.256, 52.718 153.736 C 52.947 152.216, 52.941 149.966, 52.704 148.736 C 52.467 147.506, 52.279 148.750, 52.286 151.500 M 372 147.500 C 372 147.775, 372.225 148, 372.500 148 C 372.775 148, 373 147.775, 373 147.500 C 373 147.225, 372.775 147, 372.500 147 C 372.225 147, 372 147.225, 372 147.500 M 314 148.313 C 314 148.485, 315.462 149.948, 317.250 151.563 L 320.500 154.500 317.563 151.250 C 314.825 148.221, 314 147.540, 314 148.313 M 369.333 148.667 C 369.700 149.033, 370.300 149.033, 370.667 148.667 C 371.033 148.300, 370.733 148, 370 148 C 369.267 148, 368.967 148.300, 369.333 148.667 M 160 155.150 C 158.075 156.838, 157.405 157.762, 158.511 157.202 C 160.338 156.279, 164.867 151.944, 163.905 152.041 C 163.682 152.063, 161.925 153.462, 160 155.150 M 102.918 154.363 C 104.249 156.003, 108 158.483, 108 157.723 C 108 157.532, 106.537 156.305, 104.750 154.997 C 102.739 153.525, 102.040 153.283, 102.918 154.363 M 430.286 157.500 C 430.294 160.250, 430.488 161.256, 430.718 159.736 C 430.947 158.216, 430.941 155.966, 430.704 154.736 C 430.467 153.506, 430.279 154.750, 430.286 157.500 M 321 154.378 C 321 154.585, 321.788 155.373, 322.750 156.128 C 324.336 157.371, 324.371 157.336, 323.128 155.750 C 321.821 154.084, 321 153.555, 321 154.378 M 375 157.089 C 372.846 158.851, 372.804 158.986, 374.694 158.062 C 375.901 157.472, 377.165 156.542, 377.503 155.995 C 378.406 154.534, 377.800 154.799, 375 157.089 M 325 157.493 C 325 158.170, 333.123 162.211, 333.575 161.758 C 333.785 161.549, 331.941 160.398, 329.478 159.202 C 327.015 158.005, 325 157.236, 325 157.493 M 109 158.490 C 109 159.175, 115.123 162.210, 115.580 161.753 C 115.797 161.536, 114.406 160.610, 112.487 159.695 C 110.569 158.781, 109 158.239, 109 158.490 M 152 160 C 150.075 161.054, 148.860 161.935, 149.300 161.958 C 150.359 162.014, 156 159.081, 156 158.474 C 156 157.820, 155.941 157.842, 152 160 M 371 159.500 C 371 159.775, 371.225 160, 371.500 160 C 371.775 160, 372 159.775, 372 159.500 C 372 159.225, 371.775 159, 371.500 159 C 371.225 159, 371 159.225, 371 159.500 M 369 160.500 C 369 160.775, 369.225 161, 369.500 161 C 369.775 161, 370 160.775, 370 160.500 C 370 160.225, 369.775 160, 369.500 160 C 369.225 160, 369 160.225, 369 160.500 M 365 162 C 364.175 162.533, 363.950 162.969, 364.500 162.969 C 365.050 162.969, 366.175 162.533, 367 162 C 367.825 161.467, 368.050 161.031, 367.500 161.031 C 366.950 161.031, 365.825 161.467, 365 162 M 51.286 166.500 C 51.294 169.250, 51.488 170.256, 51.718 168.736 C 51.947 167.216, 51.941 164.966, 51.704 163.736 C 51.467 162.506, 51.279 163.750, 51.286 166.500 M 117.333 162.667 C 117.700 163.033, 118.300 163.033, 118.667 162.667 C 119.033 162.300, 118.733 162, 118 162 C 117.267 162, 116.967 162.300, 117.333 162.667 M 146.333 162.667 C 146.700 163.033, 147.300 163.033, 147.667 162.667 C 148.033 162.300, 147.733 162, 147 162 C 146.267 162, 145.967 162.300, 146.333 162.667 M 335 162.500 C 335 162.775, 335.225 163, 335.500 163 C 335.775 163, 336 162.775, 336 162.500 C 336 162.225, 335.775 162, 335.500 162 C 335.225 162, 335 162.225, 335 162.500 M 120.813 163.683 C 121.534 163.972, 122.397 163.936, 122.729 163.604 C 123.061 163.272, 122.471 163.036, 121.417 163.079 C 120.252 163.127, 120.015 163.364, 120.813 163.683 M 142.813 163.683 C 143.534 163.972, 144.397 163.936, 144.729 163.604 C 145.061 163.272, 144.471 163.036, 143.417 163.079 C 142.252 163.127, 142.015 163.364, 142.813 163.683 M 338.813 163.683 C 339.534 163.972, 340.397 163.936, 340.729 163.604 C 341.061 163.272, 340.471 163.036, 339.417 163.079 C 338.252 163.127, 338.015 163.364, 338.813 163.683 M 359.813 163.683 C 360.534 163.972, 361.397 163.936, 361.729 163.604 C 362.061 163.272, 361.471 163.036, 360.417 163.079 C 359.252 163.127, 359.015 163.364, 359.813 163.683 M 128.776 164.733 C 131.128 164.945, 134.728 164.942, 136.776 164.727 C 138.824 164.512, 136.900 164.339, 132.500 164.343 C 128.100 164.346, 126.424 164.522, 128.776 164.733 M 346.250 164.728 C 348.313 164.944, 351.688 164.944, 353.750 164.728 C 355.813 164.513, 354.125 164.336, 350 164.336 C 345.875 164.336, 344.188 164.513, 346.250 164.728 M 431.300 173 C 431.300 176.025, 431.487 177.262, 431.716 175.750 C 431.945 174.238, 431.945 171.762, 431.716 170.250 C 431.487 168.738, 431.300 169.975, 431.300 173 M 50.300 181 C 50.300 184.025, 50.487 185.262, 50.716 183.750 C 50.945 182.238, 50.945 179.762, 50.716 178.250 C 50.487 176.738, 50.300 177.975, 50.300 181 M 207 176.724 C 254.498 177.419, 294.001 177.431, 294 176.750 C 294 176.338, 270.262 176.102, 241.250 176.227 C 212.238 176.351, 196.825 176.575, 207 176.724 M 188 179 C 188 179.733, 188.300 180.033, 188.667 179.667 C 189.033 179.300, 189.033 178.700, 188.667 178.333 C 188.300 177.967, 188 178.267, 188 179 M 294 180 C 294 180.733, 294.300 181.033, 294.667 180.667 C 295.033 180.300, 295.033 179.700, 294.667 179.333 C 294.300 178.967, 294 179.267, 294 180 M 186.624 182.539 C 185.659 185.053, 185.943 185.702, 187.122 183.675 C 187.706 182.671, 187.973 181.639, 187.715 181.382 C 187.458 181.124, 186.966 181.645, 186.624 182.539 M 295 182.500 C 295 182.775, 295.225 183, 295.500 183 C 295.775 183, 296 182.775, 296 182.500 C 296 182.225, 295.775 182, 295.500 182 C 295.225 182, 295 182.225, 295 182.500 M 296 185 C 296 185.733, 296.300 186.033, 296.667 185.667 C 297.033 185.300, 297.033 184.700, 296.667 184.333 C 296.300 183.967, 296 184.267, 296 185 M 432.300 189 C 432.300 192.025, 432.487 193.262, 432.716 191.750 C 432.945 190.238, 432.945 187.762, 432.716 186.250 C 432.487 184.738, 432.300 185.975, 432.300 189 M 185 187 C 185 187.733, 185.300 188.033, 185.667 187.667 C 186.033 187.300, 186.033 186.700, 185.667 186.333 C 185.300 185.967, 185 186.267, 185 187 M 297 188 C 297 188.733, 297.300 189.033, 297.667 188.667 C 298.033 188.300, 298.033 187.700, 297.667 187.333 C 297.300 186.967, 297 187.267, 297 188 M 184 189.500 C 184 189.775, 184.225 190, 184.500 190 C 184.775 190, 185 189.775, 185 189.500 C 185 189.225, 184.775 189, 184.500 189 C 184.225 189, 184 189.225, 184 189.500 M 298.071 190.500 C 298.071 191.050, 298.714 192.625, 299.500 194 C 300.286 195.375, 300.929 196.050, 300.929 195.500 C 300.929 194.950, 300.286 193.375, 299.500 192 C 298.714 190.625, 298.071 189.950, 298.071 190.500 M 183 192 C 183 192.733, 183.300 193.033, 183.667 192.667 C 184.033 192.300, 184.033 191.700, 183.667 191.333 C 183.300 190.967, 183 191.267, 183 192 M 49.300 198 C 49.300 201.025, 49.487 202.262, 49.716 200.750 C 49.945 199.238, 49.945 196.762, 49.716 195.250 C 49.487 193.738, 49.300 194.975, 49.300 198 M 182 194.500 C 182 194.775, 182.225 195, 182.500 195 C 182.775 195, 183 194.775, 183 194.500 C 183 194.225, 182.775 194, 182.500 194 C 182.225 194, 182 194.225, 182 194.500 M 181 196.500 C 181 196.775, 181.225 197, 181.500 197 C 181.775 197, 182 196.775, 182 196.500 C 182 196.225, 181.775 196, 181.500 196 C 181.225 196, 181 196.225, 181 196.500 M 301 197.500 C 301 197.775, 301.225 198, 301.500 198 C 301.775 198, 302 197.775, 302 197.500 C 302 197.225, 301.775 197, 301.500 197 C 301.225 197, 301 197.225, 301 197.500 M 177.705 203.528 C 176.229 206.538, 175.234 209, 175.494 209 C 176.167 209, 181.211 198.878, 180.762 198.429 C 180.557 198.224, 179.182 200.518, 177.705 203.528 M 302 199.500 C 302 199.775, 302.225 200, 302.500 200 C 302.775 200, 303 199.775, 303 199.500 C 303 199.225, 302.775 199, 302.500 199 C 302.225 199, 302 199.225, 302 199.500 M 433.286 204.500 C 433.294 207.250, 433.488 208.256, 433.718 206.736 C 433.947 205.216, 433.941 202.966, 433.704 201.736 C 433.467 200.506, 433.279 201.750, 433.286 204.500 M 303 201.500 C 303 201.775, 303.225 202, 303.500 202 C 303.775 202, 304 201.775, 304 201.500 C 304 201.225, 303.775 201, 303.500 201 C 303.225 201, 303 201.225, 303 201.500 M 304 203.500 C 304 203.775, 304.225 204, 304.500 204 C 304.775 204, 305 203.775, 305 203.500 C 305 203.225, 304.775 203, 304.500 203 C 304.225 203, 304 203.225, 304 203.500 M 305 205.500 C 305 205.775, 305.225 206, 305.500 206 C 305.775 206, 306 205.775, 306 205.500 C 306 205.225, 305.775 205, 305.500 205 C 305.225 205, 305 205.225, 305 205.500 M 307.500 210 C 308.353 211.650, 309.276 213, 309.551 213 C 309.826 213, 309.353 211.650, 308.500 210 C 307.647 208.350, 306.724 207, 306.449 207 C 306.174 207, 306.647 208.350, 307.500 210 M 48.310 214.500 C 48.315 217.800, 48.502 219.029, 48.725 217.232 C 48.947 215.435, 48.943 212.735, 48.715 211.232 C 48.486 209.729, 48.304 211.200, 48.310 214.500 M 174 210.500 C 174 210.775, 174.225 211, 174.500 211 C 174.775 211, 175 210.775, 175 210.500 C 175 210.225, 174.775 210, 174.500 210 C 174.225 210, 174 210.225, 174 210.500 M 172.381 213.250 C 171.976 213.938, 171.002 215.625, 170.217 217 C 168.846 219.400, 168.856 219.420, 170.468 217.500 C 172.499 215.080, 174.250 212, 173.594 212 C 173.332 212, 172.786 212.563, 172.381 213.250 M 311.668 217.015 C 312.648 218.674, 314.495 221.261, 315.774 222.765 C 317.053 224.269, 316.438 222.912, 314.408 219.750 C 310.561 213.757, 308.569 211.769, 311.668 217.015 M 434.300 220 C 434.300 223.025, 434.487 224.262, 434.716 222.750 C 434.945 221.238, 434.945 218.762, 434.716 217.250 C 434.487 215.738, 434.300 216.975, 434.300 220 M 166 223 C 164.825 224.650, 164.089 226, 164.364 226 C 164.639 226, 165.825 224.650, 167 223 C 168.175 221.350, 168.911 220, 168.636 220 C 168.361 220, 167.175 221.350, 166 223 M 47.310 231.500 C 47.315 234.800, 47.502 236.029, 47.725 234.232 C 47.947 232.435, 47.943 229.735, 47.715 228.232 C 47.486 226.729, 47.304 228.200, 47.310 231.500 M 318 226.378 C 318 226.585, 318.788 227.373, 319.750 228.128 C 321.336 229.371, 321.371 229.336, 320.128 227.750 C 318.821 226.084, 318 225.555, 318 226.378 M 161.405 229.250 L 159.500 231.500 161.750 229.595 C 163.864 227.805, 164.455 227, 163.655 227 C 163.465 227, 162.453 228.012, 161.405 229.250 M 324.500 234 C 326.648 236.200, 328.631 238, 328.906 238 C 329.181 238, 327.648 236.200, 325.500 234 C 323.352 231.800, 321.369 230, 321.094 230 C 320.819 230, 322.352 231.800, 324.500 234 M 435.320 237 C 435.320 240.575, 435.502 242.037, 435.723 240.250 C 435.945 238.463, 435.945 235.537, 435.723 233.750 C 435.502 231.963, 435.320 233.425, 435.320 237 M 151.469 240.250 L 145.500 246.500 151.750 240.531 C 155.188 237.249, 158 234.436, 158 234.281 C 158 233.542, 157.013 234.444, 151.469 240.250 M 47.195 242.500 C 47.215 244.150, 47.439 244.704, 47.693 243.731 C 47.947 242.758, 47.930 241.408, 47.656 240.731 C 47.382 240.054, 47.175 240.850, 47.195 242.500 M 335.500 245 C 336.495 246.100, 337.535 247, 337.810 247 C 338.085 247, 337.495 246.100, 336.500 245 C 335.505 243.900, 334.465 243, 334.190 243 C 333.915 243, 334.505 243.900, 335.500 245 M 48 247 C 48 247.733, 48.300 248.033, 48.667 247.667 C 49.033 247.300, 49.033 246.700, 48.667 246.333 C 48.300 245.967, 48 246.267, 48 247 M 142.405 248.250 L 140.500 250.500 142.750 248.595 C 144.864 246.805, 145.455 246, 144.655 246 C 144.465 246, 143.453 247.012, 142.405 248.250 M 434 247 C 434 247.733, 434.300 248.033, 434.667 247.667 C 435.033 247.300, 435.033 246.700, 434.667 246.333 C 434.300 245.967, 434 246.267, 434 247 M 341.674 249.708 C 343.420 251.243, 346.345 253.351, 348.174 254.392 C 352.692 256.962, 350.684 255.155, 344 250.635 C 340.024 247.946, 339.380 247.689, 341.674 249.708 M 433 250 C 433 250.733, 433.300 251.033, 433.667 250.667 C 434.033 250.300, 434.033 249.700, 433.667 249.333 C 433.300 248.967, 433 249.267, 433 250 M 49 250.642 C 49 251.179, 49.700 252.491, 50.555 253.559 C 52.022 255.389, 52.042 255.357, 50.920 253 C 49.462 249.939, 49 249.372, 49 250.642 M 138.405 251.155 C 137.962 251.870, 138.130 252.038, 138.845 251.595 C 139.480 251.203, 140 250.684, 140 250.441 C 140 249.607, 139.117 250.002, 138.405 251.155 M 135.405 253.155 C 134.962 253.870, 135.130 254.038, 135.845 253.595 C 136.480 253.203, 137 252.684, 137 252.441 C 137 251.607, 136.117 252.002, 135.405 253.155 M 431 254 C 430.411 255.100, 430.155 256, 430.430 256 C 430.705 256, 431.411 255.100, 432 254 C 432.589 252.900, 432.845 252, 432.570 252 C 432.295 252, 431.589 252.900, 431 254 M 131.441 255.555 C 129.577 257.049, 129.589 257.067, 131.750 256.020 C 132.988 255.420, 134 254.720, 134 254.465 C 134 253.700, 133.481 253.921, 131.441 255.555 M 52 256.378 C 52 256.585, 52.788 257.373, 53.750 258.128 C 55.336 259.371, 55.371 259.336, 54.128 257.750 C 52.821 256.084, 52 255.555, 52 256.378 M 352 256.500 C 352 256.775, 352.225 257, 352.500 257 C 352.775 257, 353 256.775, 353 256.500 C 353 256.225, 352.775 256, 352.500 256 C 352.225 256, 352 256.225, 352 256.500 M 125 259 C 123.075 260.054, 121.860 260.935, 122.300 260.958 C 123.359 261.014, 129 258.081, 129 257.474 C 129 256.820, 128.941 256.842, 125 259 M 354 257.430 C 354 257.705, 354.900 258.411, 356 259 C 357.100 259.589, 358 259.845, 358 259.570 C 358 259.295, 357.100 258.589, 356 258 C 354.900 257.411, 354 257.155, 354 257.430 M 425.453 261.250 L 421.500 265.500 425.750 261.547 C 429.702 257.871, 430.460 257, 429.703 257 C 429.540 257, 427.627 258.913, 425.453 261.250 M 360 261 C 360.825 261.533, 361.950 261.969, 362.500 261.969 C 363.050 261.969, 362.825 261.533, 362 261 C 361.175 260.467, 360.050 260.031, 359.500 260.031 C 358.950 260.031, 359.175 260.467, 360 261 M 120 261.500 C 120 261.775, 120.225 262, 120.500 262 C 120.775 262, 121 261.775, 121 261.500 C 121 261.225, 120.775 261, 120.500 261 C 120.225 261, 120 261.225, 120 261.500 M 58 262.378 C 58 262.585, 58.788 263.373, 59.750 264.128 C 61.336 265.371, 61.371 265.336, 60.128 263.750 C 58.821 262.084, 58 261.555, 58 262.378 M 116 263 C 115.175 263.533, 114.950 263.969, 115.500 263.969 C 116.050 263.969, 117.175 263.533, 118 263 C 118.825 262.467, 119.050 262.031, 118.500 262.031 C 117.950 262.031, 116.825 262.467, 116 263 M 365 263 C 365.825 263.533, 366.950 263.969, 367.500 263.969 C 368.050 263.969, 367.825 263.533, 367 263 C 366.175 262.467, 365.050 262.031, 364.500 262.031 C 363.950 262.031, 364.175 262.467, 365 263 M 112.333 264.667 C 112.700 265.033, 113.300 265.033, 113.667 264.667 C 114.033 264.300, 113.733 264, 113 264 C 112.267 264, 111.967 264.300, 112.333 264.667 M 369.333 264.667 C 369.700 265.033, 370.300 265.033, 370.667 264.667 C 371.033 264.300, 370.733 264, 370 264 C 369.267 264, 368.967 264.300, 369.333 264.667 M 63.441 266.445 C 64.509 267.300, 65.821 268, 66.358 268 C 67.628 268, 67.061 267.538, 64 266.080 C 61.643 264.958, 61.611 264.978, 63.441 266.445 M 108.333 265.667 C 108.700 266.033, 109.300 266.033, 109.667 265.667 C 110.033 265.300, 109.733 265, 109 265 C 108.267 265, 107.967 265.300, 108.333 265.667 M 372.813 265.683 C 373.534 265.972, 374.397 265.936, 374.729 265.604 C 375.061 265.272, 374.471 265.036, 373.417 265.079 C 372.252 265.127, 372.015 265.364, 372.813 265.683 M 420 265.500 C 420 265.775, 420.225 266, 420.500 266 C 420.775 266, 421 265.775, 421 265.500 C 421 265.225, 420.775 265, 420.500 265 C 420.225 265, 420 265.225, 420 265.500 M 104.813 266.683 C 105.534 266.972, 106.397 266.936, 106.729 266.604 C 107.061 266.272, 106.471 266.036, 105.417 266.079 C 104.252 266.127, 104.015 266.364, 104.813 266.683 M 376.333 266.667 C 376.700 267.033, 377.300 267.033, 377.667 266.667 C 378.033 266.300, 377.733 266, 377 266 C 376.267 266, 375.967 266.300, 376.333 266.667 M 418 266.500 C 418 266.775, 418.225 267, 418.500 267 C 418.775 267, 419 266.775, 419 266.500 C 419 266.225, 418.775 266, 418.500 266 C 418.225 266, 418 266.225, 418 266.500 M 99.750 267.662 C 100.438 267.940, 101.563 267.940, 102.250 267.662 C 102.938 267.385, 102.375 267.158, 101 267.158 C 99.625 267.158, 99.063 267.385, 99.750 267.662 M 380.813 267.683 C 381.534 267.972, 382.397 267.936, 382.729 267.604 C 383.061 267.272, 382.471 267.036, 381.417 267.079 C 380.252 267.127, 380.015 267.364, 380.813 267.683 M 415.333 267.667 C 415.700 268.033, 416.300 268.033, 416.667 267.667 C 417.033 267.300, 416.733 267, 416 267 C 415.267 267, 414.967 267.300, 415.333 267.667 M 68.333 268.667 C 68.700 269.033, 69.300 269.033, 69.667 268.667 C 70.033 268.300, 69.733 268, 69 268 C 68.267 268, 67.967 268.300, 68.333 268.667 M 93.750 268.662 C 94.438 268.940, 95.563 268.940, 96.250 268.662 C 96.938 268.385, 96.375 268.158, 95 268.158 C 93.625 268.158, 93.063 268.385, 93.750 268.662 M 386.813 268.683 C 387.534 268.972, 388.397 268.936, 388.729 268.604 C 389.061 268.272, 388.471 268.036, 387.417 268.079 C 386.252 268.127, 386.015 268.364, 386.813 268.683 M 412.333 268.667 C 412.700 269.033, 413.300 269.033, 413.667 268.667 C 414.033 268.300, 413.733 268, 413 268 C 412.267 268, 411.967 268.300, 412.333 268.667 M 73.269 269.693 C 74.242 269.947, 75.592 269.930, 76.269 269.656 C 76.946 269.382, 76.150 269.175, 74.500 269.195 C 72.850 269.215, 72.296 269.439, 73.269 269.693 M 82.768 269.725 C 84.565 269.947, 87.265 269.943, 88.768 269.715 C 90.271 269.486, 88.800 269.304, 85.500 269.310 C 82.200 269.315, 80.971 269.502, 82.768 269.725 M 394.250 269.716 C 395.762 269.945, 398.238 269.945, 399.750 269.716 C 401.262 269.487, 400.025 269.300, 397 269.300 C 393.975 269.300, 392.738 269.487, 394.250 269.716 M 407.269 269.693 C 408.242 269.947, 409.592 269.930, 410.269 269.656 C 410.946 269.382, 410.150 269.175, 408.500 269.195 C 406.850 269.215, 406.296 269.439, 407.269 269.693" stroke="none" fill="#7234bc" fill-rule="evenodd"/><path d="M 122.039 41.146 C 87.039 46.269, 60.347 73.503, 56.026 108.500 C 55.069 116.248, 51.246 172.573, 48.630 217.462 C 47.275 240.705, 47.673 246.478, 51.088 253.173 C 53.898 258.681, 59.560 263.909, 65.814 266.772 C 70.568 268.949, 72.611 269.269, 81.107 269.170 C 108.883 268.846, 132.429 258.757, 152.522 238.569 C 166.979 224.044, 177.777 206.681, 185.989 184.750 L 189.266 176 241.392 176 L 293.518 176 295.884 182.750 C 299.862 194.098, 307.524 209.184, 314.859 220.107 C 335.954 251.524, 366.180 268.745, 400.961 269.161 C 412.891 269.304, 419.627 267.016, 425.698 260.760 C 431.881 254.388, 434.417 248.749, 434.807 240.500 C 435.286 230.388, 427.225 108.952, 425.538 100.860 C 423.728 92.178, 417.425 78.698, 411.703 71.271 C 396.326 51.312, 374.972 40.681, 350.354 40.730 C 336.686 40.758, 326.319 43.258, 314.012 49.494 L 309.066 52 241.034 52 L 173.002 52 166.108 48.486 C 153.618 42.121, 135.733 39.142, 122.039 41.146 M 120.105 72.583 C 107.223 76.047, 96.356 85.269, 90.154 98 C 86.544 105.410, 86.500 105.649, 86.500 118 C 86.500 130.001, 86.628 130.771, 89.715 137.288 C 93.520 145.321, 102.150 154.795, 109.486 158.992 C 119.639 164.801, 132.861 166.489, 144.485 163.462 C 161.941 158.915, 176.367 142.686, 178.897 124.750 C 182.215 101.224, 167.201 78.455, 144.465 72.533 C 137.204 70.642, 127.247 70.662, 120.105 72.583 M 338.500 72.411 C 315.569 78.102, 300.034 101.813, 303.899 125.220 C 309.090 156.653, 342.863 174.148, 371 159.980 C 383.150 153.862, 392.658 142.197, 395.431 130.005 C 400.417 108.082, 391.848 87.786, 372.923 76.695 C 364.163 71.561, 349.351 69.718, 338.500 72.411 M 121 95 L 121 107 109.500 107 L 98 107 98 118 L 98 129 109.500 129 L 121 129 121 141 L 121 153 132.500 153 L 144 153 144 141 L 144 129 155.500 129 L 167 129 167 118 L 167 107 155.500 107 L 144 107 144 95 L 144 83 132.500 83 L 121 83 121 95 M 328.415 88.421 C 321.986 91.221, 318.214 99.367, 320.101 106.376 C 323.172 117.780, 337.411 121.145, 345.646 112.414 C 356.739 100.652, 343.301 81.940, 328.415 88.421 M 360.741 119.429 C 358.673 120.167, 356.281 121.352, 355.425 122.063 C 350.556 126.103, 349.449 136.403, 353.274 142.079 C 356.236 146.474, 363.347 149.533, 368.399 148.585 C 376.195 147.122, 382.058 138.454, 380.580 130.575 C 379.681 125.783, 374.735 120.298, 370.168 119.030 C 365.627 117.769, 365.363 117.780, 360.741 119.429" stroke="none" fill="#9b43fb" fill-rule="evenodd"/></svg>