<svg xmlns="http://www.w3.org/2000/svg" width="1083" height="312" viewBox="0 0 1083 312" version="1.1"><path d="M 707.500 57.503 C 690.172 61.099, 674.166 73.696, 666.165 90.034 C 662.284 97.960, 659 108.124, 659 112.210 C 659 113.563, 659.794 114, 662.250 114 L 665.500 114 665.591 123.250 C 665.770 141.414, 673.780 152.590, 690.089 157.434 C 697.576 159.657, 712.787 159.484, 722.234 157.068 C 731.314 154.746, 741.648 149.722, 742.381 147.273 C 743.080 144.940, 748 123.311, 748 122.572 C 748 122.258, 746.087 121.991, 743.750 121.980 C 740.625 121.965, 737.033 123.218, 730.185 126.713 C 722.123 130.828, 719.903 131.516, 713.685 131.828 C 707.418 132.143, 706.133 131.900, 703.629 129.926 C 700.215 127.237, 698 122.383, 698 117.592 C 698 114.303, 697.804 114.104, 694.250 113.810 C 690.730 113.519, 690.522 113.317, 690.853 110.513 C 691.945 101.258, 699.204 89.723, 706.700 85.330 C 715.459 80.197, 725.250 81.995, 734.302 90.399 C 736.581 92.515, 738.083 93, 742.360 93 L 747.617 93 750.447 80.250 C 752.003 73.237, 753.477 66.964, 753.723 66.309 C 754.264 64.864, 745.401 60.219, 738.500 58.332 C 730.794 56.225, 715.615 55.819, 707.500 57.503 M 899.772 57.539 C 879.043 62.200, 863.291 76.238, 855.607 96.896 C 853.631 102.209, 851 112.290, 851 114.549 C 851 114.797, 852.519 115, 854.376 115 L 857.751 115 857.675 122.750 C 857.488 141.769, 864.920 153.115, 880.770 158.011 C 888.632 160.439, 901.682 160.635, 910.897 158.463 C 928.549 154.302, 944.631 140.390, 952.588 122.396 C 955.659 115.452, 955.623 115, 952 115 C 948.486 115, 948.569 115.531, 950.600 106 C 955.271 84.076, 947.177 65.326, 930.319 59.018 C 922.800 56.205, 908.735 55.524, 899.772 57.539 M 580.209 83.750 C 576.790 98.463, 573.995 111.063, 573.997 111.750 C 573.998 112.456, 575.237 113, 576.841 113 L 579.682 113 574.856 133.750 C 572.201 145.162, 570.023 154.838, 570.015 155.250 C 570.007 155.662, 577.346 156, 586.325 156 L 602.650 156 605.493 143.250 C 609.591 124.869, 608.524 126.412, 617.668 125.637 C 630.302 124.567, 641.215 120.790, 648.010 115.138 L 650.500 113.067 647.666 113.033 L 644.832 113 647.761 109.250 C 662.826 89.964, 662.613 70.016, 647.254 61.770 C 639.803 57.769, 633.665 57, 609.163 57 L 586.425 57 580.209 83.750 M 780.250 57.745 C 775.163 57.927, 771 58.396, 771 58.788 C 771 59.179, 768.300 71.089, 765 85.253 C 761.700 99.417, 759 111.679, 759 112.503 C 759 113.553, 760.066 114, 762.567 114 C 765.497 114, 766.041 114.313, 765.612 115.750 C 765.325 116.713, 763.249 125.600, 761 135.500 C 758.751 145.400, 756.675 154.287, 756.388 155.250 C 755.900 156.884, 757.520 157, 780.796 157 C 808.641 157, 813.389 156.411, 822.772 151.792 C 835.815 145.371, 845.155 132.305, 845.390 120.151 L 845.500 114.500 841.849 114.196 C 838.883 113.948, 837.968 113.337, 836.976 110.941 C 836.303 109.318, 834.176 106.606, 832.249 104.914 L 828.744 101.836 832.788 97.668 C 845.359 84.711, 844.961 68.404, 831.910 61.713 C 823.608 57.456, 812.425 56.597, 780.250 57.745 M 486.129 67.250 C 484.964 72.338, 483.727 77.963, 483.381 79.750 L 482.750 83 495.894 83 C 509.013 83, 509.037 83.004, 508.515 85.250 C 508.228 86.487, 506.869 92.334, 505.496 98.242 C 502.385 111.631, 502.385 112, 505.500 112 C 506.875 112, 508 112.409, 508 112.908 C 508 113.408, 506.225 121.620, 504.056 131.158 C 501.886 140.696, 499.684 150.412, 499.162 152.750 L 498.213 157 514.954 157 L 531.696 157 536.348 135.723 C 538.907 124.020, 541 113.895, 541 113.223 C 541 112.550, 539.875 112, 538.500 112 C 537.125 112, 536 111.598, 536 111.107 C 536 110.616, 537.350 104.268, 539 97 C 540.650 89.732, 542 83.609, 542 83.393 C 542 83.177, 548.001 83, 555.335 83 L 568.669 83 570.918 72.750 C 572.155 67.112, 573.404 61.488, 573.692 60.250 L 574.217 58 531.232 58 L 488.247 58 486.129 67.250 M 954 58.787 C 954 59.910, 962.920 86.352, 967.988 100.250 C 972.108 111.550, 972.382 112, 975.161 112 C 980.313 112, 980.344 114.639, 975.450 136.132 C 973.024 146.784, 971.030 155.838, 971.019 156.250 C 971.009 156.662, 978.395 157, 987.433 157 C 1002.227 157, 1003.915 156.826, 1004.362 155.250 C 1004.635 154.287, 1006.733 145.175, 1009.023 135 C 1011.313 124.825, 1013.811 115.517, 1014.574 114.315 C 1015.862 112.285, 1015.776 112.107, 1013.370 111.815 C 1010.956 111.522, 1012.226 109.692, 1031.889 85.126 C 1043.500 70.620, 1053 58.583, 1053 58.376 C 1053 58.169, 1044.890 58, 1034.977 58 L 1016.954 58 1008.227 69.965 C 1003.427 76.546, 999.246 81.946, 998.936 81.965 C 998.625 81.984, 996.703 76.600, 994.664 70 L 990.956 58 972.478 58 C 962.315 58, 954 58.354, 954 58.787 M 613.459 82.340 C 613.234 82.978, 612.188 87.438, 611.134 92.250 C 609.243 100.882, 609.243 101, 611.141 101 C 619.797 101, 627.771 90.642, 623.332 85.163 C 621.206 82.539, 614.105 80.508, 613.459 82.340 M 901.732 83.077 C 894.549 86.869, 886.049 102.643, 886.011 112.250 C 886.001 114.641, 886.391 115, 889 115 C 891.862 115, 892 115.196, 892.006 119.250 C 892.032 139.750, 908.483 140.767, 918.555 120.891 C 919.900 118.237, 921 115.827, 921 115.533 C 921 115.240, 919.395 115, 917.433 115 C 914.186 115, 913.930 114.798, 914.587 112.750 C 917.350 104.136, 917.807 92.866, 915.606 87.599 C 914.025 83.816, 910.529 80.979, 907.527 81.044 C 906.412 81.069, 903.805 81.983, 901.732 83.077 M 798.534 83.250 C 798.312 83.938, 797.705 86.638, 797.186 89.250 L 796.242 94 799.510 94 C 805.726 94, 809.801 87.801, 806.051 84.051 C 803.785 81.785, 799.166 81.293, 798.534 83.250 M 798.521 117.966 C 797.703 119.290, 795.092 129.709, 795.036 131.874 C 794.971 134.360, 805.681 132.793, 808.442 129.912 C 811.302 126.929, 812.358 121.872, 810.618 119.493 C 809.036 117.329, 799.647 116.144, 798.521 117.966 M 540.687 188.646 C 539.541 189.792, 539.918 196.518, 541.200 197.800 C 542.045 198.645, 547.773 199, 560.578 199 C 580.931 199, 581.353 198.861, 580.815 192.320 L 580.500 188.500 560.937 188.229 C 550.178 188.081, 541.065 188.268, 540.687 188.646 M 603.627 189.468 C 596.090 192.155, 589.060 199.525, 587.016 206.882 C 585.662 211.756, 585.738 220.393, 587.176 225.193 C 588.811 230.651, 595.463 237.841, 601.462 240.634 C 609.308 244.288, 611 243.640, 611 236.981 C 611 234.581, 610.197 233.688, 605.975 231.390 C 592.276 223.934, 592.967 205.738, 607.203 199.044 C 609.812 197.818, 610.566 196.803, 610.818 194.182 C 611.108 191.166, 609.691 187.935, 608.128 188.044 C 607.782 188.068, 605.757 188.709, 603.627 189.468 M 616.648 188.685 C 616.292 189.042, 616 191.223, 616 193.532 C 616 197.535, 616.221 197.842, 620.750 200.142 C 634.041 206.891, 632.404 228.042, 618.250 232.436 C 616.366 233.021, 616 233.846, 616 237.508 C 616 239.914, 616.460 242.166, 617.022 242.514 C 619.064 243.776, 627.921 239.842, 632.040 235.845 C 637.915 230.144, 640.329 224.151, 640.275 215.405 C 640.224 207.103, 637.975 201.129, 633.046 196.200 C 628.284 191.438, 618.417 186.916, 616.648 188.685 M 650.667 188.667 C 650.300 189.033, 650 191.283, 650 193.667 L 650 198 662.250 198.006 C 680.254 198.014, 684 199.542, 684 206.878 C 684 212.090, 681.378 213, 666.359 213 C 659.102 213, 652.452 213.273, 651.582 213.607 C 650.245 214.120, 650 216.359, 650 228.088 L 650 241.962 652.500 242.589 C 653.875 242.934, 656.125 242.934, 657.500 242.589 C 659.935 241.978, 660 241.727, 660 232.981 L 660 224 666.896 224 L 673.793 224 678.556 231.750 C 681.176 236.012, 683.992 240.287, 684.814 241.250 C 687.091 243.914, 696.026 243.428, 695.982 240.643 C 695.972 240.014, 693.497 235.726, 690.482 231.113 C 687.467 226.500, 685 222.410, 685 222.024 C 685 221.637, 686.126 220.808, 687.502 220.181 C 690.615 218.763, 693.681 213.846, 694.509 208.946 C 695.947 200.432, 690.408 191.317, 682.453 189.109 C 678.204 187.929, 651.772 187.561, 650.667 188.667 M 737 188.940 C 721.630 193.603, 713.820 208.550, 718.443 224.453 C 720.606 231.891, 728.472 240.242, 734.963 241.990 C 740.893 243.587, 742 242.897, 742 237.609 C 742 233.447, 741.781 233.083, 738.665 232.054 C 735.219 230.917, 731.081 227.128, 729.122 223.316 C 728.505 222.114, 728 218.468, 728 215.214 C 728 207.718, 730.649 203.420, 737.301 200.120 C 742.075 197.752, 742.097 197.718, 741.799 193.198 C 741.477 188.312, 740.864 187.767, 737 188.940 M 747.648 188.685 C 747.292 189.042, 747 191.262, 747 193.620 C 747 197.696, 747.208 198, 751.250 199.817 C 753.587 200.868, 756.591 202.914, 757.924 204.364 C 759.808 206.412, 761.289 207, 764.567 207 C 769.964 207, 770.750 205.148, 767.523 200.036 C 764.884 195.856, 760 191.695, 755.996 190.215 C 751.709 188.631, 748.323 188.010, 747.648 188.685 M 795.551 191.197 C 794.786 193.014, 791.182 201.443, 787.542 209.928 C 783.901 218.414, 781.151 225.951, 781.430 226.678 C 781.754 227.522, 783.689 228, 786.784 228 L 791.631 228 796.500 216 C 799.178 209.400, 801.623 204.008, 801.934 204.018 C 802.245 204.028, 805.037 210.215, 808.138 217.768 L 813.775 231.500 796.138 232 L 778.500 232.500 776.580 236.086 C 772.866 243.022, 772.786 243, 801.862 243 C 824.396 243, 827.864 242.797, 828.383 241.444 C 828.716 240.576, 824.166 228.533, 818.087 214.194 L 807.194 188.500 802.068 188.197 C 797.108 187.903, 796.898 188, 795.551 191.197 M 836.069 189.417 C 835.120 190.561, 837.354 194.112, 847.697 207.895 C 854.739 217.279, 861.204 224.966, 862.064 224.978 C 862.924 224.990, 866.749 220.878, 870.564 215.841 L 877.500 206.682 877.773 224.328 L 878.046 241.973 880.523 242.595 C 881.885 242.937, 884.132 242.933, 885.516 242.585 L 888.033 241.954 887.766 215.227 L 887.500 188.500 882.874 188.200 L 878.248 187.901 870.560 198.450 C 866.331 204.253, 862.494 209, 862.032 209 C 861.570 209, 857.678 204.275, 853.382 198.500 C 845.645 188.098, 845.533 188, 841.409 188 C 839.037 188, 836.739 188.610, 836.069 189.417 M 901.410 189.374 C 901.111 190.152, 901.009 192.524, 901.183 194.645 L 901.500 198.500 920.370 198.773 C 933.811 198.967, 939.652 198.704, 940.670 197.859 C 941.591 197.095, 941.993 195.220, 941.800 192.586 L 941.500 188.500 921.727 188.229 C 905.413 188.005, 901.858 188.205, 901.410 189.374 M 951.398 189.405 C 951.102 190.177, 951.003 192.315, 951.180 194.155 L 951.500 197.500 965.545 198 C 983.298 198.632, 985.994 200.013, 985.062 208 C 984.966 208.825, 983.962 210.287, 982.833 211.250 C 981.100 212.726, 978.696 213, 967.471 213 C 960.152 213, 953.452 213.273, 952.582 213.607 C 951.245 214.120, 951 216.351, 951 228 C 951 243.050, 950.980 243, 957.107 243 C 960.890 243, 962 240.253, 962 230.889 L 962 223.909 968.644 224.204 L 975.288 224.500 980.943 233.500 C 985.632 240.962, 987.080 242.556, 989.420 242.828 C 993.472 243.299, 997 242.202, 997 240.471 C 997 239.651, 994.413 235.087, 991.250 230.328 C 987.689 224.969, 985.957 221.521, 986.700 221.271 C 987.360 221.049, 989.102 219.921, 990.571 218.765 C 997.329 213.449, 997.896 200.896, 991.683 194.118 C 987.094 189.111, 982.731 188.046, 966.719 188.022 C 954.932 188.004, 951.828 188.285, 951.398 189.405 M 901.402 211.395 C 901.108 212.162, 901.009 214.524, 901.183 216.645 L 901.500 220.500 918.868 220.774 C 930.830 220.963, 936.667 220.691, 937.618 219.902 C 939.317 218.492, 939.435 212.835, 937.800 211.200 C 935.938 209.338, 902.122 209.519, 901.402 211.395 M 540.667 211.667 C 540.300 212.033, 540 218.693, 540 226.467 C 540 241.915, 540.361 243, 545.500 243 C 550.378 243, 551 241.621, 551 230.800 L 551 221 563.981 221 L 576.962 221 577.589 218.500 C 577.934 217.125, 577.934 214.875, 577.589 213.500 L 576.962 211 559.148 211 C 549.350 211, 541.033 211.300, 540.667 211.667 M 743.402 212.395 C 743.108 213.162, 743.009 215.524, 743.183 217.645 L 743.500 221.500 751.750 221.790 C 756.288 221.950, 760 222.478, 760 222.964 C 760 224.793, 754.590 230.177, 751.114 231.808 C 747.896 233.318, 747.466 233.970, 747.192 237.761 C 746.822 242.871, 748.305 243.824, 753.980 242.124 C 759.967 240.330, 767.519 232.901, 769.944 226.420 C 772.460 219.695, 772.691 212.479, 770.418 211.607 C 769.548 211.273, 763.234 211, 756.387 211 C 746.660 211, 743.820 211.305, 743.402 212.395 M 836.246 225.154 C 834.610 226.790, 834.573 240.173, 836.200 241.800 C 837.565 243.165, 842.853 243.380, 844.793 242.149 C 845.724 241.559, 846.004 238.971, 845.793 232.914 L 845.500 224.500 841.496 224.204 C 839.247 224.039, 836.945 224.455, 836.246 225.154 M 901.402 233.395 C 901.108 234.162, 901.009 236.524, 901.183 238.645 L 901.500 242.500 920.370 242.773 C 933.442 242.961, 939.665 242.693, 940.620 241.900 C 942.318 240.492, 942.434 234.834, 940.800 233.200 C 938.933 231.333, 902.123 231.515, 901.402 233.395" stroke="none" fill="#fafafa" fill-rule="evenodd"/><path d="M 107.500 35.457 C 77.286 42.218, 53.913 65.461, 47.621 95 C 46.045 102.399, 42.678 147.967, 39.383 206.500 C 37.767 235.195, 37.772 236.760, 39.485 242.481 C 41.953 250.722, 51.096 260.060, 58.995 262.406 C 71.405 266.091, 95.699 262.888, 112.846 255.305 C 123.226 250.714, 135.222 242.077, 144.708 232.363 C 158.972 217.758, 169.616 200.426, 177.634 178.753 L 180.500 171.006 232.402 171.253 L 284.304 171.500 287.460 180.021 C 291.750 191.605, 300.659 208.412, 307.688 218.183 C 315.538 229.096, 330.725 243.321, 341.047 249.430 C 356.570 258.618, 370.483 262.703, 389.500 263.658 C 399.262 264.149, 401.162 263.960, 406.381 261.985 C 413.107 259.438, 419.030 254.511, 422.517 248.561 C 427.447 240.149, 427.452 239.405, 423.047 169.851 C 420.805 134.458, 418.498 102.595, 417.921 99.046 C 411.819 61.552, 379.187 34, 340.882 34 C 329.461 34, 319.727 36.177, 309.112 41.106 L 300.723 45 232.502 45 L 164.282 45 156.634 41.467 C 152.428 39.523, 145.664 37.103, 141.602 36.088 C 132.643 33.849, 116.056 33.542, 107.500 35.457 M 509.250 57.749 C 521.212 57.908, 540.788 57.908, 552.750 57.749 C 564.712 57.589, 554.925 57.459, 531 57.459 C 507.075 57.459, 497.288 57.589, 509.250 57.749 M 952.998 57.750 C 952.997 58.163, 958.735 58.383, 965.748 58.240 C 989.349 57.758, 991.621 57.393, 972.250 57.196 C 961.663 57.088, 952.999 57.337, 952.998 57.750 M 1016.652 57.750 C 1016.396 58.163, 1021.882 58.383, 1028.843 58.240 C 1052.197 57.759, 1054.640 57.393, 1035.809 57.196 C 1025.529 57.088, 1016.908 57.337, 1016.652 57.750 M 108.942 67.886 C 101.910 70.136, 92.499 76.508, 88.116 81.986 C 68.782 106.152, 76.125 140.068, 103.635 153.664 C 111.337 157.470, 111.489 157.500, 123.448 157.500 C 134.530 157.500, 135.977 157.277, 141.421 154.727 C 158.041 146.944, 168.133 132.755, 169.680 115 C 170.300 107.875, 168.434 98.629, 164.896 91.297 C 159.728 80.589, 148.314 70.863, 137.068 67.584 C 129.760 65.453, 116.087 65.600, 108.942 67.886 M 329.281 66.909 C 317.002 70.057, 305.203 80.180, 299.228 92.692 C 295.590 100.312, 295.500 100.778, 295.500 112.052 C 295.500 123.475, 295.544 123.692, 299.422 131.539 C 304.347 141.503, 311.265 148.563, 321.093 153.652 L 328.500 157.487 341 157.494 C 353.200 157.500, 353.668 157.418, 360.500 154.085 C 369.747 149.573, 378.519 140.805, 383.075 131.521 C 386.421 124.703, 386.500 124.253, 386.500 112.021 C 386.500 99.997, 386.372 99.231, 383.285 92.712 C 378.813 83.272, 370.584 74.892, 361.259 70.284 C 354.370 66.879, 353.211 66.627, 343.199 66.365 C 337.314 66.211, 331.052 66.456, 329.281 66.909 M 112 88.500 L 112 100 100 100 L 88 100 88 112 L 88 124 100 124 L 112 124 112 135.500 L 112 147 123.500 147 L 135 147 135 135.500 L 135 124 147 124 L 159 124 159 112 L 159 100 147 100 L 135 100 135 88.500 L 135 77 123.500 77 L 112 77 112 88.500 M 316.999 83.250 C 312.086 86.604, 309.800 91.467, 310.258 97.592 C 311.737 117.379, 341.011 116.437, 340.996 96.602 C 340.992 90.551, 338.515 85.894, 333.759 82.995 C 329.148 80.183, 321.318 80.302, 316.999 83.250 M 348.984 113.854 C 347.068 114.874, 344.495 117.461, 343.266 119.604 C 337.106 130.349, 344.307 143, 356.584 143 C 372.253 143, 378.123 123.064, 365.048 114.253 C 360.861 111.432, 353.863 111.258, 348.984 113.854 M 970.873 157.276 C 971.301 157.702, 979.042 157.926, 988.076 157.773 L 1004.500 157.495 987.297 156.997 C 977.836 156.724, 970.445 156.849, 970.873 157.276 M 506.250 157.745 C 511.063 157.928, 518.938 157.928, 523.750 157.745 C 528.563 157.561, 524.625 157.411, 515 157.411 C 505.375 157.411, 501.438 157.561, 506.250 157.745 M 701.750 159.723 C 703.538 159.945, 706.462 159.945, 708.250 159.723 C 710.038 159.502, 708.575 159.320, 705 159.320 C 701.425 159.320, 699.962 159.502, 701.750 159.723 M 888.436 215.500 C 888.436 229.800, 888.577 235.511, 888.748 228.191 C 888.919 220.871, 888.918 209.171, 888.747 202.191 C 888.575 195.211, 888.435 201.200, 888.436 215.500 M 657.292 198.742 C 661.027 198.935, 666.877 198.934, 670.292 198.739 C 673.706 198.545, 670.650 198.387, 663.500 198.389 C 656.350 198.390, 653.556 198.550, 657.292 198.742 M 958.750 198.740 C 962.188 198.936, 967.813 198.936, 971.250 198.740 C 974.688 198.545, 971.875 198.385, 965 198.385 C 958.125 198.385, 955.313 198.545, 958.750 198.740 M 649.392 228 C 649.392 235.425, 649.549 238.463, 649.742 234.750 C 649.934 231.037, 649.934 224.963, 649.742 221.250 C 649.549 217.537, 649.392 220.575, 649.392 228 M 557.292 221.742 C 561.027 221.935, 566.877 221.934, 570.292 221.739 C 573.706 221.545, 570.650 221.387, 563.500 221.389 C 556.350 221.390, 553.556 221.550, 557.292 221.742 M 660.349 232 C 660.349 236.675, 660.522 238.588, 660.732 236.250 C 660.943 233.912, 660.943 230.088, 660.732 227.750 C 660.522 225.412, 660.349 227.325, 660.349 232" stroke="none" fill="#9c44fc" fill-rule="evenodd"/></svg>